{"title":"Crazy Rich Asians 2018 720p HDTS x264 [MW]","magnet":"magnet:?xt=urn:btih:b987525ed856d9c189176ce027966b823d6a80a0&dn=Crazy+Rich+Asians+2018+720p+HDTS+x264+%5BMW%5D&tr=udp%3A%2F%2Ftracker.leechers-paradise.org%3A6969&tr=udp%3A%2F%2Fzer0day.ch%3A1337&tr=udp%3A%2F%2Fopen.demonii.com%3A1337&tr=udp%3A%2F%2Ftracker.coppersurfer.tk%3A6969&tr=udp%3A%2F%2Fexodus.desync.com%3A6969","uploader":"MFreaky","categoryP":"video","categoryS":"movies","size":"1266364681","seeders":"2","leechers":"7","description":" <a href=\"https://pichub.site/image/Ecg68\" rel=\"nofollow\" target=\"_NEW\">https://pichub.site/image/Ecg68</a> <a href=\"\nhttps://pichub.site/image/EcNrh\" rel=\"nofollow\" target=\"_NEW\">\nhttps://pichub.site/image/EcNrh</a> <a href=\"\nhttps://pichub.site/image/EcGC5\" rel=\"nofollow\" target=\"_NEW\">\nhttps://pichub.site/image/EcGC5</a> <a href=\"\nhttps://pichub.site/image/EcUQj\" rel=\"nofollow\" target=\"_NEW\">\nhttps://pichub.site/image/EcUQj</a> <a href=\"\nhttps://pichub.site/image/Ecx7r\" rel=\"nofollow\" target=\"_NEW\">\nhttps://pichub.site/image/Ecx7r</a>\r\n\r\nIMDB <a href=\"\nhttps://www.imdb.com/title/tt3104988/\" rel=\"nofollow\" target=\"_NEW\">\nhttps://www.imdb.com/title/tt3104988/</a>\r\n\r\nVideo\r\nFormat                                   : AVC\r\nFormat/Info                              : Advanced Video Codec\r\nFormat profile                           : High@L4.1\r\nFormat settings                          : CABAC / 5 Ref Frames\r\nFormat settings, CABAC                   : Yes\r\nFormat settings, RefFrames               : 5 frames\r\nCodec ID                                 : V_MPEG4/ISO/AVC\r\nDuration                                 : 1 h 56 min\r\nBit rate                                 : 1 200 kb/s\r\nWidth                                    : 1 280 pixels\r\nHeight                                   : 536 pixels\r\nDisplay aspect ratio                     : 2.40:1\r\nFrame rate mode                          : Constant\r\nFrame rate                               : 29.970 (30000/1001) FPS\r\nColor space                              : YUV\r\nChroma subsampling                       : 4:2:0\r\nBit depth                                : 8 bits\r\nScan type                                : Progressive\r\nBits/(Pixel*Frame)                       : 0.058\r\nStream size                              : 1 019 MiB (84%)\r\nWriting library                          : x264 core 155 r2901 7d0ff22\r\n\r\nAudio\r\nFormat                                   : AAC\r\nFormat/Info                              : Advanced Audio Codec\r\nFormat profile                           : LC\r\nCodec ID                                 : A_AAC-2\r\nDuration                                 : 1 h 56 min\r\nBit rate                                 : 224 kb/s\r\nChannel(s)                               : 2 channels\r\nChannel positions                        : Front: L R\r\nSampling rate                            : 48.0 kHz\r\nFrame rate                               : 46.875 FPS (1024 SPF)\r\nCompression mode                         : Lossy\r\nStream size                              : 187 MiB (15%)\r\nLanguage                                 : English","last_updated":"2018-09-18T12:05:40.726Z","parsed":{"xt":"urn:btih:b987525ed856d9c189176ce027966b823d6a80a0","dn":"Crazy Rich Asians 2018 720p HDTS x264 [MW]","tr":["udp://exodus.desync.com:6969","udp://open.demonii.com:1337","udp://tracker.coppersurfer.tk:6969","udp://tracker.leechers-paradise.org:6969","udp://zer0day.ch:1337"],"infoHash":"b987525ed856d9c189176ce027966b823d6a80a0","infoHashBuffer":{"type":"Buffer","data":[185,135,82,94,216,86,217,193,137,23,108,224,39,150,107,130,61,106,128,160]},"name":"Crazy Rich Asians 2018 720p HDTS x264 [MW]","announce":["udp://exodus.desync.com:6969","udp://open.demonii.com:1337","udp://tracker.coppersurfer.tk:6969","udp://tracker.leechers-paradise.org:6969","udp://zer0day.ch:1337"],"urlList":[]}}